<?xml version="1.0" encoding="utf-8"?>
<!-- Generator: Adobe Illustrator 22.0.1, SVG Export Plug-In . SVG Version: 6.00 Build 0)  -->
<svg version="1.1" id="Layer_1" xmlns="http://www.w3.org/2000/svg" xmlns:xlink="http://www.w3.org/1999/xlink" x="0px" y="0px"
	 viewBox="0 0 512 512" style="enable-background:new 0 0 512 512;" xml:space="preserve">
<style type="text/css">
	.st0{fill:#C15775;}
</style>
<g>
	<path class="st0" d="M12.7,47h35.5c22.9,0,38.4,1.1,46.5,3.2c8.1,2.1,14.2,5.6,18.4,10.4c4.2,4.8,6.8,10.2,7.9,16.1
		c1.1,5.9,1.6,17.5,1.6,34.8v64c0,16.4-0.8,27.4-2.3,32.9c-1.5,5.5-4.2,9.9-8.1,13c-3.8,3.1-8.6,5.3-14.2,6.5
		c-5.6,1.2-14.1,1.9-25.5,1.9H12.7V47z M60.2,78.3v120.1c6.8,0,11.1-1.4,12.6-4.1c1.6-2.7,2.4-10.2,2.4-22.4v-71
		c0-8.3-0.3-13.6-0.8-15.9c-0.5-2.3-1.7-4-3.6-5.1C69,78.8,65.4,78.3,60.2,78.3z"/>
	<path class="st0" d="M136.5,47h79.2v36.6H184v34.6h29.7V153H184v40.2h34.9v36.6h-82.4V47z"/>
	<path class="st0" d="M376.5,47v182.6H335L335,106.4l-16.5,123.3H289l-17.4-120.5l-0.1,120.5H230V47h61.5c1.8,11,3.7,23.9,5.6,38.8
		l6.7,46.5L314.7,47H376.5z"/>
	<path class="st0" d="M500,154c0,18.4-0.4,31.3-1.3,39c-0.9,7.6-3.6,14.6-8.1,20.9c-4.6,6.3-10.7,11.2-18.4,14.6
		c-7.7,3.4-16.8,5.1-27.1,5.1c-9.8,0-18.6-1.6-26.3-4.8s-14-8-18.8-14.4c-4.7-6.4-7.6-13.3-8.5-20.9c-0.9-7.5-1.4-20.7-1.4-39.5
		v-31.2c0-18.3,0.4-31.3,1.3-39c0.9-7.6,3.6-14.6,8.1-20.9c4.5-6.3,10.7-11.2,18.4-14.6c7.7-3.4,16.8-5.1,27.1-5.1
		c9.8,0,18.6,1.6,26.3,4.8c7.8,3.2,14,8,18.8,14.4c4.7,6.4,7.6,13.4,8.5,20.9c0.9,7.5,1.4,20.7,1.4,39.5V154z M452.5,94
		c0-8.5-0.5-13.9-1.4-16.3c-0.9-2.4-2.9-3.6-5.8-3.6c-2.5,0-4.4,1-5.7,2.9c-1.3,1.9-2,7.6-2,17v85.3c0,10.6,0.4,17.1,1.3,19.6
		c0.9,2.5,2.9,3.7,6,3.7c3.2,0,5.3-1.4,6.2-4.3c0.9-2.9,1.4-9.7,1.4-20.4V94z"/>
	<path class="st0" d="M15.3,247.2h42.5c28.4,0,47.6,1.1,57.6,3.3c10,2.2,18.2,7.8,24.6,16.8c6.3,9,9.5,23.3,9.5,43
		c0,18-2.2,30.1-6.7,36.3c-4.5,6.2-13.3,9.9-26.4,11.1c11.9,3,19.9,6.9,24,11.8c4.1,4.9,6.6,9.5,7.6,13.6c1,4.1,1.5,15.5,1.5,34.2
		v61H93.6v-76.8c0-12.4-1-20-2.9-23c-2-2.9-7.1-4.4-15.3-4.4v104.2H15.3V247.2z M75.4,286.7v51.4c6.8,0,11.5-0.9,14.2-2.8
		c2.7-1.9,4.1-7.9,4.1-18.1v-12.7c0-7.3-1.3-12.1-3.9-14.4C87.1,287.9,82.3,286.7,75.4,286.7z"/>
	<path class="st0" d="M167.1,247.2h100.2v46.2h-40.1v43.8h37.5v44h-37.5V432h44.1v46.2H167.1V247.2z"/>
	<path class="st0" d="M285.4,247.2h100.2v46.2h-40.1v43.8H383v44h-37.5V432h44.1v46.2H285.4V247.2z"/>
	<path class="st0" d="M463.8,247.2V432h36.5v46.2h-96.6V247.2H463.8z"/>
</g>
</svg>
